<?xml version="1.0" standalone="no"?><!DOCTYPE svg PUBLIC "-//W3C//DTD SVG 1.1//EN" "http://www.w3.org/Graphics/SVG/1.1/DTD/svg11.dtd"><svg t="1662755066201" class="icon" viewBox="0 0 1024 1024" version="1.1" xmlns="http://www.w3.org/2000/svg" p-id="36201" xmlns:xlink="http://www.w3.org/1999/xlink" width="128" height="128"><path d="M512 560.035993c-2.355147 0-4.710294-0.204795-7.065442-0.819182-8.49901-1.945556-15.871644-7.270237-20.377143-14.74527l-96.049049-160.047614a32.009523 32.009523 0 1 1 54.885171-32.972062l78.743836 131.27386 116.118999-77.412666c14.74527-9.83018 34.610425-5.836669 44.338207 8.9086 9.83018 14.74527 5.836669 34.610425-8.908601 44.338207l-143.971175 96.049048c-5.222283 3.58392-11.468543 5.427078-17.714803 5.427079z" p-id="36202"></path><path d="M621.36075 608.060517c-2.457545 0-5.017488-0.307193-7.475032-0.921579l-210.632082-50.48207a32.009523 32.009523 0 1 1 14.950065-62.257805l210.632082 50.482069c17.202815 4.095908 27.749778 21.401121 23.65387 38.603936a32.193839 32.193839 0 0 1-31.128903 24.575449zM621.36075 704.007168c-2.457545 0-5.017488-0.307193-7.475032-0.92158l-210.632082-50.482069a32.009523 32.009523 0 1 1 14.950065-62.257805l210.632082 50.482069c17.202815 4.095908 27.749778 21.401121 23.65387 38.603935a32.081201 32.081201 0 0 1-31.128903 24.57545z" p-id="36203"></path><path d="M512 783.979776c-17.714803 0-32.050482-14.335679-32.050482-32.050482V527.985511c0-17.714803 14.335679-32.050482 32.050482-32.050482s32.050482 14.335679 32.050482 32.050482v224.046181c0 17.612405-14.335679 31.948084-32.050482 31.948084z" p-id="36204"></path><path d="M927.939483 1024c-4.095908 0-8.089419-0.204795-12.185327-0.819182L83.772792 915.253636C36.055461 909.109774 0.011469 867.536305 0.011469 818.692599V253.252465c0-28.261767 12.082929-55.089966 33.074459-73.521553a95.240107 95.240107 0 0 1 75.057518-23.039484l831.981364 107.927182c47.717331 6.24626 83.761324 47.717331 83.761324 96.561037V926.722179c0 28.261767-12.082929 55.089966-33.176857 73.521553a95.045551 95.045551 0 0 1-62.769794 23.756268zM95.958119 219.97321c-7.475033 0-14.642872 2.764738-20.581939 7.884624-7.270237 6.348658-11.366145 15.666849-11.366145 25.497028v565.440135c0 16.793224 12.082929 31.026505 28.056971 33.074459l831.981364 107.927182c8.9086 1.126375 17.714803-1.535966 24.57545-7.57743 7.270237-6.348658 11.366145-15.666849 11.366145-25.497029V361.179647c0-16.793224-12.082929-31.026505-28.056971-33.074459L99.95163 220.178006c-1.33117-0.204795-2.66234-0.204795-3.993511-0.204796z" p-id="36205"></path><path d="M32.061951 889.654209C14.347147 889.654209 0.011469 875.31853 0.011469 857.706125V216.491688c0-48.22932 34.098436-88.676414 81.201381-96.151446L833.221605 1.149312c27.442585-4.300704 55.397159 3.58392 76.695882 21.708314A97.707891 97.707891 0 0 1 944.118321 97.300758v192.40529c0 17.714803-14.335679 32.050482-32.050483 32.050482s-32.050482-14.335679-32.050482-32.050482V97.300758c0-10.034975-4.300704-19.455564-11.673338-25.804222-7.065442-6.041465-16.07644-8.601407-25.087438-7.167839L91.247825 183.519627c-15.769247 2.457545-27.23779 16.383633-27.23779 32.972061v641.214437c0 17.612405-14.335679 31.948084-31.948084 31.948084z" p-id="36206"></path></svg>