<?xml version="1.0" standalone="no"?><!DOCTYPE svg PUBLIC "-//W3C//DTD SVG 1.1//EN" "http://www.w3.org/Graphics/SVG/1.1/DTD/svg11.dtd"><svg t="1662756041416" class="icon" viewBox="0 0 1024 1024" version="1.1" xmlns="http://www.w3.org/2000/svg" p-id="40999" xmlns:xlink="http://www.w3.org/1999/xlink" width="128" height="128"><path d="M976.179 574.813c-8.958 0-17.917-3.418-24.751-10.253-13.667-13.67-13.665-35.831 0.004-49.498 1.905-1.904 2.305-4.075 2.305-5.562s-0.399-3.658-2.305-5.562L518.199 72.704c-1.962-1.962-4.134-2.362-5.621-2.362s-3.659 0.4-5.564 2.305l-0.085 0.085L72.694 503.969c-1.878 1.896-2.273 4.053-2.273 5.532 0 1.487 0.399 3.659 2.304 5.563 13.669 13.668 13.669 35.828 0.001 49.497-13.668 13.668-35.829 13.668-49.498 0.001C8.52 549.856 0.42 530.301 0.42 509.501c0-20.8 8.1-40.355 22.808-55.062l0.085-0.085L457.588 23.078C472.287 8.415 491.812 0.343 512.578 0.343c20.8 0 40.354 8.1 55.062 22.807l433.23 431.233c14.765 14.762 22.866 34.317 22.866 55.118 0 20.801-8.102 40.356-22.812 55.063-6.832 6.833-15.789 10.249-24.745 10.249z" fill="" p-id="41000"></path><path d="M161.108 999.568c-19.33 0-35-15.67-35-35v-403.48c0-19.33 15.67-35 35-35s35 15.67 35 35v403.48c0 19.33-15.67 35-35 35zM875.573 999.568c-19.33 0-35-15.67-35-35v-403.48c0-19.33 15.67-35 35-35s35 15.67 35 35v403.48c0 19.33-15.67 35-35 35z" fill="" p-id="41001"></path><path d="M972.067 1020.567H61.114c-19.33 0-35-15.67-35-35s15.67-35 35-35h910.954c19.33 0 35 15.67 35 35s-15.671 35-35.001 35zM505.343 593.336c-8.958 0-17.914-3.416-24.749-10.251L340.351 442.84c-13.668-13.668-13.668-35.829 0-49.498 13.668-13.668 35.829-13.667 49.498 0l140.243 140.244c13.668 13.669 13.668 35.829 0 49.498-6.834 6.834-15.793 10.252-24.749 10.252z" fill="" p-id="41002"></path><path d="M517.091 593.336c-8.957 0-17.915-3.417-24.749-10.251-13.668-13.669-13.668-35.829 0-49.498l140.243-140.243c13.668-13.669 35.828-13.669 49.498 0 13.668 13.668 13.668 35.829 0 49.497L541.84 583.085c-6.834 6.834-15.792 10.251-24.749 10.251z" fill="" p-id="41003"></path><path d="M649.086 630.084H380.099c-19.33 0-35-15.67-35-35s15.67-35 35-35h268.987c19.33 0 35 15.67 35 35s-15.67 35-35 35zM649.086 786.076H380.099c-19.33 0-35-15.67-35-35s15.67-35 35-35h268.987c19.33 0 35 15.67 35 35s-15.67 35-35 35z" fill="" p-id="41004"></path><path d="M510.592 932.571c-19.33 0-35-15.67-35-35V594.586c0-19.33 15.67-35 35-35s35 15.67 35 35v302.985c0 19.33-15.67 35-35 35z" fill="" p-id="41005"></path></svg>