<?xml version="1.0" standalone="no"?><!DOCTYPE svg PUBLIC "-//W3C//DTD SVG 1.1//EN" "http://www.w3.org/Graphics/SVG/1.1/DTD/svg11.dtd"><svg t="1662756459621" class="icon" viewBox="0 0 1024 1024" version="1.1" xmlns="http://www.w3.org/2000/svg" p-id="41950" xmlns:xlink="http://www.w3.org/1999/xlink" width="128" height="128"><path d="M880 659.136l96 166.272-96 166.272h-192l-96-166.272 96-166.272h192zM778.56 59.84a128 128 0 0 1 125.76 108.224l1.28 9.984 0.384 9.856V515.84a38.4 38.4 0 1 1-76.8 0V189.632l-0.192-6.4a51.2 51.2 0 0 0-44.032-46.144l-6.4-0.448H190.336l-6.336 0.256a51.2 51.2 0 0 0-45.632 44.48l-0.384 6.528v651.008l0.192 6.4a51.2 51.2 0 0 0 43.968 46.144l6.4 0.384h294.208a38.4 38.4 0 0 1 6.272 76.352l-6.272 0.448H188.608a128 128 0 0 1-125.76-108.16l-1.28-9.984-0.384-9.856V187.904c0-62.848 45.568-115.968 107.648-126.336l9.92-1.28 9.856-0.448h589.952zM843.008 723.2h-118.08l-59.072 102.272 59.008 102.272h118.08l59.136-102.272-59.072-102.272z m-54.272 69.376a32 32 0 1 1 0 64 32 32 0 0 1 0-64z m-373.12-224c20.032 0 36.48 16.768 36.48 37.248 0 20.48-16.448 37.312-36.48 37.312H324.48A36.992 36.992 0 0 1 288 605.76c0-20.48 16.384-37.312 36.48-37.312z m200.448-155.84c20.096 0 36.48 16.832 36.48 37.312 0 20.544-16.384 37.312-36.48 37.312H324.48A36.992 36.992 0 0 1 288 449.984c0-20.48 16.384-37.312 36.48-37.312zM515.84 256c20.032 0 36.48 16.768 36.48 37.312 0 20.48-16.448 37.312-36.48 37.312H324.48A36.992 36.992 0 0 1 288 293.312c0-20.48 16.384-37.312 36.48-37.312z" p-id="41951"></path></svg>