<?xml version="1.0" standalone="no"?><!DOCTYPE svg PUBLIC "-//W3C//DTD SVG 1.1//EN" "http://www.w3.org/Graphics/SVG/1.1/DTD/svg11.dtd"><svg t="1662755230418" class="icon" viewBox="0 0 1024 1024" version="1.1" xmlns="http://www.w3.org/2000/svg" p-id="38771" xmlns:xlink="http://www.w3.org/1999/xlink" width="128" height="128"><path d="M530.24397 460.130843c-5.081886 0-12.704715-2.540943-17.7866-7.622829L367.623623 315.297096c-10.163772-10.163772-12.704715-25.409429-2.540943-35.573201s25.409429-10.163772 35.573201 0l127.047146 121.965261 134.669975-129.588089c10.163772-10.163772 25.409429-10.163772 35.573201 0s10.163772 25.409429 0 35.573201l-152.456576 144.833747C542.948685 457.5899 535.325856 460.130843 530.24397 460.130843z" p-id="38772"></path><path d="M708.109975 467.753671 357.459851 467.753671c-15.245658 0-25.409429-10.163772-25.409429-25.409429s10.163772-25.409429 25.409429-25.409429l348.109181 0c15.245658 0 25.409429 10.163772 25.409429 25.409429S720.81469 467.753671 708.109975 467.753671z" p-id="38773"></path><path d="M708.109975 620.210247 357.459851 620.210247c-15.245658 0-25.409429-10.163772-25.409429-25.409429s10.163772-25.409429 25.409429-25.409429l348.109181 0c15.245658 0 25.409429 10.163772 25.409429 25.409429S720.81469 620.210247 708.109975 620.210247z" p-id="38774"></path><path d="M532.784913 772.666823c-15.245658 0-25.409429-10.163772-25.409429-25.409429L507.375484 457.5899c0-15.245658 10.163772-25.409429 25.409429-25.409429s25.409429 10.163772 25.409429 25.409429l0 289.667494C558.194342 762.503051 548.030571 772.666823 532.784913 772.666823z" p-id="38775"></path><path d="M468.80397 1024c-5.081886 0-10.163772-2.540943-15.245658-5.081886l-101.637717-81.310174c-7.622829-7.622829-12.704715-17.7866-7.622829-27.950372 2.540943-10.163772 12.704715-17.7866 22.868486-17.7866l464.992556 0c27.950372 0 53.359801-10.163772 71.146402-30.491315 17.7866-17.7866 27.950372-43.19603 27.950372-68.605459l-2.540943-350.650124c0-15.245658 10.163772-25.409429 25.409429-25.409429l0 0c12.704715 0 25.409429 10.163772 25.409429 25.409429l2.540943 350.650124c0 40.655087-15.245658 78.769231-43.19603 109.260546-27.950372 27.950372-66.064516 45.736973-106.719603 45.736973L438.312655 947.771712l45.736973 35.573201c10.163772 7.622829 12.704715 25.409429 5.081886 35.573201C484.049628 1021.459057 476.426799 1024 468.80397 1024z" p-id="38776"></path><path d="M77.498759 612.367246c-12.704715 0-25.409429-10.163772-25.409429-25.409429L47.007444 236.307692c0-40.655087 15.245658-78.769231 43.19603-109.260546 30.491315-27.950372 68.605459-45.736973 109.260546-45.736973l391.305211 0-45.736973-35.573201c-10.163772-7.622829-12.704715-25.409429-5.081886-35.573201s25.409429-12.704715 35.573201-5.081886l101.637717 81.310174c7.622829 7.622829 12.704715 17.7866 7.622829 27.950372S674.620347 132.129032 664.456576 132.129032L199.46402 132.129032c-27.950372 0-53.359801 12.704715-71.146402 30.491315C107.990074 182.947891 97.826303 208.35732 97.826303 233.766749L100.367246 584.416873C102.908189 599.662531 90.203474 612.367246 77.498759 612.367246L77.498759 612.367246z" p-id="38777"></path></svg>