<?xml version="1.0" standalone="no"?><!DOCTYPE svg PUBLIC "-//W3C//DTD SVG 1.1//EN" "http://www.w3.org/Graphics/SVG/1.1/DTD/svg11.dtd"><svg t="1662663981838" class="icon" viewBox="0 0 1024 1024" version="1.1" xmlns="http://www.w3.org/2000/svg" p-id="3905" xmlns:xlink="http://www.w3.org/1999/xlink" width="128" height="128"><path d="M1017.998535 462.112821V460.612454l-2.25055-22.505494v-0.750183C980.489377 190.54652 768.187546 0.750183 511.624908 0.750183 230.306227 0.750183 2.250549 228.805861 2.250549 509.374359s228.055678 508.624176 508.624176 508.624176 508.624176-228.055678 508.624176-508.624176c0-15.753846-0.750183-32.257875-1.500366-47.261538zM888.967033 250.561172c0.750183 1.500366 2.250549 3.750916 3.750916 5.251282 0.750183 2.250549 2.250549 3.750916 3.750915 5.251282 2.250549 3.750916 4.501099 6.751648 6.751649 10.502564 0.750183 0.750183 0.750183 1.500366 1.500366 2.25055l6.001465 10.502564c0.750183 0.750183 0.750183 0.750183 0.750183 2.250549 30.757509 54.76337 49.512088 114.778022 55.513554 177.793407-108.026374 18.004396-133.532601 35.258608-144.035165 63.765568-9.002198 22.505495-5.251282 40.50989-0.750183 53.263003-3.000733 3.000733-6.751648 6.001465-9.002198 9.002198-24.005861 22.505495-44.260806 42.010256-44.260806 70.517216 0 13.503297 3.750916 27.756777 7.501831 42.76044 1.500366 5.251282 3.750916 12.00293 4.501099 18.004395-5.251282 6.751648-12.00293 15.753846-17.254212 29.257143-3.000733 2.250549-6.751648 4.501099-10.502564 7.501832-3.000733-18.004396-3.750916-42.010256-1.500367-49.512088 12.00293-36.008791-2.250549-61.515018-13.503296-76.518681 2.250549-9.002198 2.250549-21.005128-0.750183-33.758242-7.501832-27.006593-30.757509-44.260806-59.264469-44.260806-10.502564 0-19.504762 2.250549-29.257143 3.750916-5.251282 0.750183-10.502564 2.250549-15.753846 3.000732h-0.750183c-1.500366 0-10.502564-3.750916-22.505495-23.255677 3.000733-9.002198 15.753846-27.006593 21.005128-33.758242 9.752381-13.503297 18.004396-24.005861 20.254945-39.009524 2.250549-12.753114 1.500366-26.25641 0.750184-40.50989-0.750183-3.750916-0.750183-9.002198-0.750184-13.503297 11.252747-9.002198 33.758242-30.007326 29.257143-63.765567 0-4.501099 2.250549-14.25348 3.750916-21.005129 4.501099-1.500366 9.002198-2.250549 12.00293-3.000732 33.758242-5.251282 46.511355-35.258608 53.263004-53.263004 18.754579-6.751648 57.764103-18.754579 128.281319-39.009524 3.000733 9.002198 7.501832 14.25348 11.252747 19.504762zM274.567033 481.617582l-6.751648 11.252748H262.564103c-3.750916 0-7.501832 0-11.252748-0.750183C225.054945 422.353114 201.049084 406.599267 180.043956 400.597802c-4.501099-1.500366-9.002198-2.250549-12.753114-3.000732-9.752381-24.756044-33.758242-42.76044-81.01978-59.264469 0-0.750183 0.750183-0.750183 0.750183-1.500367 0.750183-3.000733 2.250549-5.251282 3.750916-8.252014 0.750183-1.500366 1.500366-3.000733 2.25055-5.251282 0.750183-1.500366 1.500366-3.750916 2.250549-5.251282 0.750183-2.250549 2.250549-4.501099 3.000733-6.751649 0-0.750183 0.750183-0.750183 0.750183-1.500366 27.006593-55.513553 65.265934-105.025641 111.027106-144.785348 44.260806 116.278388 63.015385 126.030769 88.521612 132.032234 25.506227 5.251282 62.265201 16.504029 81.01978 24.756044-21.005128 11.252747-42.010256 22.505495-55.513553 35.258608-19.504762 19.504762-53.263004 78.769231-49.512088 124.530403zM53.263004 509.374359c0-42.010256 5.251282-83.27033 16.504029-122.279854 25.506227 9.002198 46.511355 19.504762 50.262271 30.75751 9.002198 29.257143 27.006593 27.006593 45.010989 32.257875 18.754579 5.251282 40.50989 67.516484 44.260806 78.769231 3.750916 12.00293 36.008791 15.003663 52.51282 15.003663s51.012454 32.257875 61.515019 42.760439c10.502564 10.502564 9.002198 36.008791 2.250549 73.517949-6.751648 37.509158 17.254212 42.76044 18.754579 56.263736 1.500366 13.503297 24.005861 27.006593 29.257143 44.260806 5.251282 17.254212 6.751648 42.010256-3.750916 63.765568-10.502564 23.255678-13.503297 52.512821-9.002198 69.767033 0.750183 5.251282-3.750916 23.255678-12.00293 44.260806-171.791941-66.016117-295.572161-233.30696-295.572161-429.104762z m323.328937 159.789011v-1.500366c2.250549-15.003663 5.251282-29.257143 5.251282-44.260806l7.501832 4.501099c3.750916 2.250549 9.002198 5.251282 14.25348 9.002198 3.750916 2.250549 7.501832 3.750916 11.252747 5.251282 6.751648 35.258608 30.757509 46.511355 46.511355 50.262271 6.001465 1.500366 12.753114 2.250549 19.504762 2.250549 5.251282 0 10.502564-0.750183 15.003663-0.750183-30.757509 20.254945-55.513553 57.764103-68.266666 87.021245-0.750183-12.00293-2.250549-24.756044-6.001466-36.008791-6.001465-19.504762-18.754579-33.758242-27.006593-42.760439-0.750183-0.750183-1.500366-2.250549-2.250549-3.000733-3.000733-14.25348-11.252747-23.255678-15.753847-30.007326 0 0.750183 0 0.750183 0 0z m134.282784 297.822711c-43.510623 0-85.520879-6.001465-125.280586-17.254213 5.251282-19.504762 10.502564-36.758974 12.002931-42.760439 5.251282-19.504762 67.516484-65.265934 72.017582-88.521612 5.251282-23.255678 34.508425-73.517949 63.015385-85.520879 27.756777-12.00293 27.006593-59.264469 9.002197-78.769231-8.252015-9.002198-19.504762-11.252747-31.507692-11.252747-9.752381 0-19.504762 1.500366-28.50696 1.500366-3.000733 0-6.001465 0-9.002197-0.750183-17.254212-3.750916-3.750916-34.508425-10.502564-42.76044-2.250549-3.000733-5.251282-3.750916-9.752381-3.750915h-6.751649c-5.251282 0-11.252747-0.750183-18.754579-4.501099-15.003663-8.252015-28.50696-21.005128-48.011721-21.005129-2.250549 0-5.251282 0-8.252015 0.750184-2.250549 0.750183-5.251282 0.750183-8.252014 0.750183-20.254945 0-37.509158-12.00293-53.263004-29.257143-17.254212-18.754579 24.005861-45.010989 16.504029-61.515018-8.252015-16.504029 15.003663-70.517216 33.758242-89.271795s84.770696-42.76044 88.521612-57.764103-13.503297-33.758242-27.006594-48.011721c-13.503297-15.003663-88.521612-34.508425-112.527472-40.509891-12.753114-3.000733-36.758974-60.764835-57.764103-114.778022C325.579487 81.769963 414.101099 51.762637 510.124542 51.762637c129.031502 0 245.30989 54.013187 329.330403 139.534066-58.514286 16.504029-128.281319 37.509158-132.032234 43.510623-6.751648 10.502564-10.502564 39.009524-19.504762 40.50989-9.002198 1.500366-49.512088 10.502564-51.012454 23.255678-1.500366 12.00293-10.502564 44.260806-8.252015 59.264469 2.250549 15.003663-24.005861 19.504762-27.756777 37.509157-3.750916 17.254212 2.250549 49.512088 0 63.015385-2.250549 13.503297-60.014652 65.265934-37.509157 104.275458 20.254945 35.258608 44.260806 51.012454 68.266666 51.012454 2.250549 0 5.251282 0 8.252015-0.750183 16.504029-2.250549 29.257143-6.751648 37.509158-6.751649 5.251282 0 9.002198 2.250549 10.502564 7.501832 3.750916 14.25348-10.502564 26.25641 0 39.759707 10.502564 13.503297 21.005128 21.005128 15.003663 42.010256-6.751648 19.504762-3.750916 69.767033 5.251282 96.023443 9.002198 27.006593 9.002198 42.76044 21.005128 45.010989 1.500366 0.750183 2.250549 0.750183 3.750916 0.750184 11.252747 0 24.756044-9.002198 39.009524-26.256411 16.504029-18.754579 32.257875-18.754579 37.509157-37.509157 5.251282-18.754579 23.255678-25.506227 23.255678-44.260806 0-18.754579-13.503297-52.512821-13.503297-66.7663 0-15.003663 63.015385-57.764103 61.515018-75.018315-1.500366-17.254212-18.754579-18.754579-10.502564-40.509891 3.750916-11.252747 53.263004-22.505495 99.024176-30.757509-4.501099 249.810989-207.800733 450.860073-458.361905 450.860074z m0 0" fill="" p-id="3906"></path></svg>