<?xml version="1.0" standalone="no"?><!DOCTYPE svg PUBLIC "-//W3C//DTD SVG 1.1//EN" "http://www.w3.org/Graphics/SVG/1.1/DTD/svg11.dtd"><svg t="1662749270148" class="icon" viewBox="0 0 1024 1024" version="1.1" xmlns="http://www.w3.org/2000/svg" p-id="18422" xmlns:xlink="http://www.w3.org/1999/xlink" width="128" height="128"><path d="M897.7408 150.4256L751.7184 20.7872c-6.3488-6.7584-14.9504-10.5472-23.7568-10.5472H150.016c-18.7392 0-33.8944 16.384-33.8944 36.4544V879.616c0 9.8304 3.6864 19.5584 10.3424 26.2144l102.2976 93.696c18.0224 14.1312 37.376 5.8368 47.0016 0l104.448-94.6176L488.6528 1003.52c19.7632 12.9024 29.696 10.24 47.0016 0L644.096 904.9088 752.3328 1003.52c9.6256 7.0656 15.0528 10.24 23.552 10.24 8.3968 0 15.0528-3.7888 23.552-10.24l98.0992-89.088c6.5536-6.9632 10.3424-16.384 10.3424-26.2144V176.2304c0-9.6256-3.6864-19.0464-10.1376-25.8048z m-43.3152 739.328l-67.072 63.488-113.0496-92.3648c-16.4864-13.2096-33.3824-13.2096-49.0496 0l-113.152 92.3648-113.152-92.3648c-8.9088-6.656-15.6672-10.4448-24.4736-10.4448-8.9088 0-15.872 3.8912-24.576 10.4448l-104.96 92.16-75.6736-71.8848v-818.176h546.7136V161.792c0 12.4928 9.5232 22.8352 21.1968 22.8352h117.0432l0.2048 705.1264z" p-id="18423"></path><path d="M239.8208 615.424h156.672v55.5008h-156.672V615.424zM239.8208 388.7104H348.16v55.5008H239.8208v-55.5008zM239.8208 500.4288h128v58.88h-128v-58.88zM503.3984 608.8704c-31.3344 0-56.7296 25.3952-56.7296 56.7296s25.3952 56.7296 56.7296 56.7296S560.128 696.9344 560.128 665.6s-25.3952-56.7296-56.7296-56.7296zM673.4848 608.8704c-31.3344 0-56.7296 25.3952-56.7296 56.7296s25.3952 56.7296 56.7296 56.7296 56.7296-25.3952 56.7296-56.7296-25.3952-56.7296-56.7296-56.7296z" p-id="18424"></path><path d="M760.6272 311.808H446.976l-7.7824-28.672c-5.9392-25.8048-22.016-28.672-29.696-28.672H300.544c-15.872 0-28.672 12.9024-28.672 28.672 0 15.872 12.8 28.672 28.672 28.672h87.04l57.344 206.6432c5.4272 16.9984 18.1248 22.8352 28.672 22.8352h229.5808c11.8784 0 22.4256-6.0416 28.672-22.4256l49.2544-149.7088c4.4032-13.9264 8.192-21.504 8.192-28.672 0-19.0464-16.384-28.672-28.672-28.672z" p-id="18425"></path></svg>