<?xml version="1.0" standalone="no"?><!DOCTYPE svg PUBLIC "-//W3C//DTD SVG 1.1//EN" "http://www.w3.org/Graphics/SVG/1.1/DTD/svg11.dtd"><svg t="1662759455099" class="icon" viewBox="0 0 1024 1024" version="1.1" xmlns="http://www.w3.org/2000/svg" p-id="48461" xmlns:xlink="http://www.w3.org/1999/xlink" width="128" height="128"><path d="M897.219048 273.066667c4.87619-14.628571 9.752381-29.257143 9.752381-48.761905 0-58.514286-48.761905-112.152381-112.152381-112.152381S682.666667 160.914286 682.666667 224.304762s48.761905 112.152381 112.152381 112.152381h19.504762c29.257143 53.638095 48.761905 112.152381 48.761904 175.542857 0 43.885714-9.752381 82.895238-24.380952 126.780952l92.647619 34.133334c19.504762-48.761905 29.257143-102.4 29.257143-160.914286 4.87619-82.895238-19.504762-165.790476-63.390476-238.933333z m-131.657143-43.885715c0-19.504762 14.628571-34.133333 29.257143-34.133333s34.133333 14.628571 34.133333 34.133333-14.628571 34.133333-34.133333 34.133334-29.257143-19.504762-29.257143-34.133334zM229.180952 687.542857h-19.504762c-29.257143-53.638095-48.761905-112.152381-48.761904-175.542857 0-43.885714 9.752381-82.895238 24.380952-126.780952l-97.523809-34.133334c-19.504762 48.761905-29.257143 102.4-29.257143 160.914286 0 82.895238 24.380952 165.790476 68.266666 238.933333-4.87619 14.628571-9.752381 29.257143-9.752381 48.761905 0 58.514286 48.761905 112.152381 112.152381 112.152381s112.152381-48.761905 112.152381-112.152381-53.638095-112.152381-112.152381-112.152381z m0 141.409524c-19.504762 0-34.133333-14.628571-34.133333-34.133333 0-19.504762 14.628571-34.133333 34.133333-34.133334s34.133333 14.628571 34.133334 34.133334c-4.87619 19.504762-19.504762 34.133333-34.133334 34.133333zM229.180952 336.457143c58.514286 0 112.152381-48.761905 112.152381-112.152381v-19.504762c92.647619-53.638095 204.8-63.390476 302.32381-24.380952l34.133333-92.647619c-126.780952-48.761905-277.942857-34.133333-394.971428 39.009523-24.380952-4.87619-39.009524-9.752381-53.638096-9.752381-58.514286 0-112.152381 48.761905-112.152381 112.152381s48.761905 107.27619 112.152381 107.276191z m0-141.409524c14.628571 0 29.257143 14.628571 29.257143 34.133333s-14.628571 29.257143-29.257143 29.257143S195.047619 243.809524 195.047619 229.180952s14.628571-34.133333 34.133333-34.133333zM794.819048 687.542857c-58.514286 0-112.152381 48.761905-112.152381 112.152381v19.504762c-92.647619 53.638095-204.8 63.390476-302.32381 24.380952l-34.133333 92.647619c48.761905 19.504762 102.4 29.257143 160.914286 29.257143 82.895238 0 165.790476-24.380952 238.933333-68.266666 14.628571 4.87619 29.257143 9.752381 48.761905 9.752381 58.514286 0 112.152381-48.761905 112.152381-112.152381s-48.761905-107.27619-112.152381-107.276191z m0 141.409524c-19.504762 0-34.133333-14.628571-34.133334-34.133333 0-19.504762 14.628571-34.133333 34.133334-34.133334s34.133333 19.504762 34.133333 34.133334c0 19.504762-14.628571 34.133333-34.133333 34.133333zM282.819048 512l229.180952 229.180952 229.180952-229.180952-229.180952-229.180952-229.180952 229.180952z m229.180952 92.647619l-92.647619-92.647619 92.647619-92.647619 92.647619 92.647619-92.647619 92.647619z" p-id="48462"></path></svg>