<?xml version="1.0" standalone="no"?><!DOCTYPE svg PUBLIC "-//W3C//DTD SVG 1.1//EN" "http://www.w3.org/Graphics/SVG/1.1/DTD/svg11.dtd"><svg t="1662753061908" class="icon" viewBox="0 0 1024 1024" version="1.1" xmlns="http://www.w3.org/2000/svg" p-id="29390" xmlns:xlink="http://www.w3.org/1999/xlink" width="128" height="128"><path d="M704 960c-59.83 0-116.08-23.3-158.39-65.61C503.3 852.08 480 795.83 480 736s23.3-116.08 65.61-158.39C587.92 535.3 644.17 512 704 512s116.08 23.3 158.39 65.61C904.7 619.92 928 676.17 928 736s-23.3 116.08-65.61 158.39C820.08 936.7 763.83 960 704 960z m0-384c-88.22 0-160 71.78-160 160s71.78 160 160 160 160-71.78 160-160-71.78-160-160-160z" p-id="29391"></path><path d="M681.83 823.89v-36.33h-43.36c-9.38 0-14.06-4.28-14.06-12.89 0.77-7.03 5.46-11.32 14.06-12.89h43.36v-19.92h-43.36c-9.38 0-14.06-4.28-14.06-12.89 0.77-7.03 5.46-11.32 14.06-12.89h24.61l-37.5-52.73c-3.92-3.11-5.47-7.42-4.69-12.89 0.77-13.28 8.2-20.69 22.27-22.27 7.03 0.79 12.89 3.92 17.58 9.38l43.36 62.11 43.36-62.11c3.9-5.46 9.76-8.59 17.58-9.38 13.28 1.57 20.69 8.99 22.27 22.27 0 5.47-1.57 9.78-4.69 12.89l-37.5 52.73h24.61c7.8 1.57 12.49 5.86 14.06 12.89-0.79 8.61-5.47 12.89-14.06 12.89h-43.36v19.92h43.36c7.8 1.57 12.49 5.86 14.06 12.89-0.79 8.61-5.47 12.89-14.06 12.89h-43.36v36.33c-0.79 13.29-8.2 19.92-22.27 19.92-14.85 0-22.27-6.63-22.27-19.92zM512 960H178c-45.21 0-82-37.18-82-82.88V164.88C96 119.18 132.79 82 178 82h166c17.67 0 32 14.33 32 32s-14.33 32-32 32H178c-9.93 0-18 8.47-18 18.88v712.25c0 10.41 8.07 18.88 18 18.88h334c17.67 0 32 14.33 32 32S529.67 960 512 960zM896 576c-17.67 0-32-14.33-32-32V164.88c0-10.41-8.07-18.88-18-18.88H680c-17.67 0-32-14.33-32-32s14.33-32 32-32h166c45.21 0 82 37.18 82 82.88V544c0 17.67-14.33 32-32 32z" p-id="29392"></path><path d="M752 320H272c-17.6 0-32-14.4-32-32s14.4-32 32-32h480c17.6 0 32 14.4 32 32s-14.4 32-32 32zM608 448H272c-17.6 0-32-14.4-32-32s14.4-32 32-32h336c17.6 0 32 14.4 32 32s-14.4 32-32 32zM480 576H272c-17.6 0-32-14.4-32-32s14.4-32 32-32h208c17.6 0 32 14.4 32 32s-14.4 32-32 32zM597 164H427c-16.5 0-30-13.5-30-30V94c0-16.5 13.5-30 30-30h170c16.5 0 30 13.5 30 30v40c0 16.5-13.5 30-30 30z" p-id="29393"></path></svg>