<?xml version="1.0" standalone="no"?><!DOCTYPE svg PUBLIC "-//W3C//DTD SVG 1.1//EN" "http://www.w3.org/Graphics/SVG/1.1/DTD/svg11.dtd"><svg t="1662144970381" class="icon" viewBox="0 0 1024 1024" version="1.1" xmlns="http://www.w3.org/2000/svg" p-id="6447" width="128" height="128" xmlns:xlink="http://www.w3.org/1999/xlink"><defs><style type="text/css"></style></defs><path d="M170.688 128c-47.168 0-85.376 38.208-85.376 85.312v597.376c0 47.104 38.208 85.312 85.376 85.312h682.624c46.656 0 85.376-38.72 85.376-85.312V384c0-46.656-38.72-85.312-85.376-85.312h-170.624V213.312C682.688 166.208 644.48 128 597.312 128H170.688z m106.624 170.688H320c11.776 0 21.312 9.536 21.312 21.312v42.688C341.312 374.4 331.776 384 320 384h-42.688A21.312 21.312 0 0 1 256 362.688V320c0-11.776 9.6-21.312 21.312-21.312z m170.688 0h42.688C502.4 298.688 512 308.224 512 320v42.688C512 374.4 502.4 384 490.688 384H448a21.312 21.312 0 0 1-21.312-21.312V320c0-11.776 9.536-21.312 21.312-21.312zM682.688 384h170.624v426.688h-170.624v-85.376h64c11.776 0 21.312-9.536 21.312-21.312v-42.688a21.312 21.312 0 0 0-21.312-21.312h-64V554.688h64c11.776 0 21.312-9.6 21.312-21.376v-42.624a21.376 21.376 0 0 0-21.312-21.376h-64V384zM277.312 469.312H320c11.776 0 21.312 9.6 21.312 21.376v42.624c0 11.776-9.536 21.376-21.312 21.376h-42.688A21.312 21.312 0 0 1 256 533.312v-42.624c0-11.776 9.6-21.376 21.312-21.376z m170.688 0h42.688c11.776 0 21.312 9.6 21.312 21.376v42.624c0 11.776-9.6 21.376-21.312 21.376H448a21.312 21.312 0 0 1-21.312-21.376v-42.624c0-11.776 9.536-21.376 21.312-21.376zM277.312 640H320c11.776 0 21.312 9.6 21.312 21.312V704c0 11.776-9.536 21.312-21.312 21.312h-42.688A21.312 21.312 0 0 1 256 704v-42.688c0-11.776 9.6-21.312 21.312-21.312zM448 640h42.688c11.776 0 21.312 9.6 21.312 21.312V704c0 11.776-9.6 21.312-21.312 21.312H448A21.312 21.312 0 0 1 426.688 704v-42.688c0-11.776 9.536-21.312 21.312-21.312z" p-id="6448"></path></svg>