<?xml version="1.0" standalone="no"?><!DOCTYPE svg PUBLIC "-//W3C//DTD SVG 1.1//EN" "http://www.w3.org/Graphics/SVG/1.1/DTD/svg11.dtd"><svg t="1662748901358" class="icon" viewBox="0 0 1024 1024" version="1.1" xmlns="http://www.w3.org/2000/svg" p-id="12930" xmlns:xlink="http://www.w3.org/1999/xlink" width="128" height="128"><path d="M663.3 668h-50V460h-76.9v179.6H359.7V358.1h50v231.5h76.7V410h176.9z" fill="" p-id="12931"></path><path d="M409.5 411h-50v-35.9L305 401.9 283 357l126.5-62.2zM612.8 730.8V614.7h50v35.8l54.4-26.8 22.1 44.9z" fill="" p-id="12932"></path><path d="M511.9 941.1c-58 0-114.4-11.4-167.4-33.8-51.2-21.7-97.2-52.7-136.7-92.1s-70.5-85.5-92.1-136.7c-22.4-53-33.8-109.3-33.8-167.4s11.4-114.4 33.8-167.4c21.7-51.2 52.7-97.2 92.1-136.7 39.5-39.5 85.5-70.5 136.7-92.1 53-22.4 109.3-33.8 167.4-33.8 58 0 114.4 11.4 167.4 33.8 51.2 21.7 97.2 52.7 136.7 92.1 39.5 39.5 70.5 85.5 92.1 136.7 22.4 53 33.8 109.3 33.8 167.4s-11.4 114.4-33.8 167.4c-21.7 51.2-52.7 97.2-92.1 136.7-39.5 39.5-85.5 70.5-136.7 92.1-53.1 22.5-109.4 33.8-167.4 33.8z m0-810c-51.3 0-101.1 10-147.9 29.9-45.2 19.1-85.9 46.5-120.8 81.4-34.9 34.9-62.3 75.5-81.4 120.8-19.8 46.8-29.9 96.6-29.9 147.9 0 51.3 10 101.1 29.9 147.9 19.1 45.2 46.5 85.9 81.4 120.8 34.9 34.9 75.5 62.3 120.8 81.4 46.8 19.8 96.6 29.9 147.9 29.9s101.1-10 147.9-29.9c45.2-19.1 85.9-46.5 120.8-81.4 34.9-34.9 62.3-75.5 81.4-120.8 19.8-46.8 29.9-96.6 29.9-147.9 0-51.3-10-101.1-29.9-147.9-19.1-45.2-46.5-85.9-81.4-120.8-34.9-34.9-75.5-62.3-120.8-81.4-46.9-19.8-96.6-29.9-147.9-29.9z" fill="" p-id="12933"></path></svg>