<?xml version="1.0" standalone="no"?><!DOCTYPE svg PUBLIC "-//W3C//DTD SVG 1.1//EN" "http://www.w3.org/Graphics/SVG/1.1/DTD/svg11.dtd"><svg t="1662791184855" class="icon" viewBox="0 0 1024 1024" version="1.1" xmlns="http://www.w3.org/2000/svg" p-id="52814" xmlns:xlink="http://www.w3.org/1999/xlink" width="128" height="128"><path d="M355.84 810.666667a42.666667 42.666667 0 0 0 0-85.333334H128V128h768v42.666667a42.666667 42.666667 0 0 0 85.333333 0V117.76A82.773333 82.773333 0 0 0 891.306667 42.666667H132.693333A82.773333 82.773333 0 0 0 42.666667 117.76v617.813333A82.773333 82.773333 0 0 0 132.693333 810.666667zM430.08 853.333333h-256a42.666667 42.666667 0 1 0 0 85.333334h256a42.666667 42.666667 0 0 0 0-85.333334z" p-id="52815"></path><path d="M716.373333 456.533333a98.133333 98.133333 0 1 0 98.133334 98.133334 98.133333 98.133333 0 0 0-98.133334-98.133334z m0 153.6a55.466667 55.466667 0 1 1 55.466667-55.466666 55.466667 55.466667 0 0 1-55.466667 55.466666z" p-id="52816"></path><path d="M974.08 619.946667l-67.84-39.253334a199.253333 199.253333 0 0 0 0-52.053333l67.84-39.253333a20.906667 20.906667 0 0 0 8.106667-29.013334l-51.2-88.746666a21.76 21.76 0 0 0-29.44-7.68l-67.413334 38.826666a192 192 0 0 0-45.653333-26.026666V298.666667a21.333333 21.333333 0 0 0-21.333333-21.333334h-102.4a21.333333 21.333333 0 0 0-21.333334 21.333334v78.08a194.986667 194.986667 0 0 0-46.08 26.026666l-67.84-38.826666a20.906667 20.906667 0 0 0-29.013333 7.68l-51.2 88.746666a23.893333 23.893333 0 0 0-2.133333 16.213334 21.333333 21.333333 0 0 0 9.813333 12.8l67.84 39.253333a164.693333 164.693333 0 0 0-2.133333 26.026667 174.933333 174.933333 0 0 0 2.133333 26.453333l-67.84 38.826667a21.333333 21.333333 0 0 0-9.813333 12.8 23.893333 23.893333 0 0 0 2.133333 16.213333l51.2 88.746667a20.906667 20.906667 0 0 0 12.8 9.813333 19.626667 19.626667 0 0 0 16.213333-2.133333l67.84-38.826667a194.986667 194.986667 0 0 0 44.8 26.026667V810.666667a21.333333 21.333333 0 0 0 21.333334 21.333333H768a21.333333 21.333333 0 0 0 21.333333-21.333333v-78.08a192 192 0 0 0 45.653334-26.026667l67.413333 38.826667a19.626667 19.626667 0 0 0 16.213333 2.133333 20.48 20.48 0 0 0 13.226667-9.813333L981.333333 648.96a21.333333 21.333333 0 0 0-7.253333-29.013333z m-69.546667 78.08l-62.293333-35.84a21.333333 21.333333 0 0 0-25.173333 2.56 142.506667 142.506667 0 0 1-56.32 32.426666 21.333333 21.333333 0 0 0-14.933334 20.48v71.68h-59.733333v-71.68a21.76 21.76 0 0 0-14.506667-20.48 151.04 151.04 0 0 1-56.32-32.426666 21.333333 21.333333 0 0 0-25.173333-2.56l-61.866667 35.84-29.866666-52.053334 61.866666-35.84a20.906667 20.906667 0 0 0 10.24-23.466666 135.253333 135.253333 0 0 1 0-64 21.333333 21.333333 0 0 0-10.24-23.466667l-61.866666-35.84 29.866666-52.053333 61.866667 35.84a21.76 21.76 0 0 0 25.173333-2.56 145.493333 145.493333 0 0 1 56.32-32.426667 21.76 21.76 0 0 0 14.506667-20.48V320h59.733333v71.68a21.333333 21.333333 0 0 0 14.933334 20.48 142.506667 142.506667 0 0 1 56.32 32.426667 21.76 21.76 0 0 0 25.173333 2.56l62.293333-35.84 29.866667 52.053333-62.72 36.266667a21.333333 21.333333 0 0 0-9.813333 23.893333 116.053333 116.053333 0 0 1 3.413333 31.146667 116.053333 116.053333 0 0 1-3.413333 31.146666 21.333333 21.333333 0 0 0 9.813333 23.893334l62.72 36.266666z" p-id="52817"></path></svg>