<?xml version="1.0" standalone="no"?><!DOCTYPE svg PUBLIC "-//W3C//DTD SVG 1.1//EN" "http://www.w3.org/Graphics/SVG/1.1/DTD/svg11.dtd"><svg t="1662759626306" class="icon" viewBox="0 0 1024 1024" version="1.1" xmlns="http://www.w3.org/2000/svg" p-id="50253" xmlns:xlink="http://www.w3.org/1999/xlink" width="128" height="128"><path d="M668.544896 503.514285a153.587603 153.587603 0 0 0 66.335217-126.234383C734.880113 290.100653 660.646105 219.450356 569.005502 219.450356s-165.801475 70.650298-165.801475 157.829546a153.587603 153.587603 0 0 0 66.26208 126.234383c-80.889471 37.299847-132.377887 115.190702-132.597297 200.760938a27.792042 27.792042 0 0 0 28.523412 27.13381 27.792042 27.792042 0 0 0 28.523412-27.13381c5.704682-88.934536 83.156717-158.268368 176.698881-158.268368 93.615301 0 171.067335 69.333832 176.772017 158.268368a27.792042 27.792042 0 0 0 28.523412 27.13381 27.792042 27.792042 0 0 0 28.523412-27.13381c-0.73137-86.301606-53.755661-164.411872-135.961597-200.760938zM460.250851 377.279902c0.73137-56.681139 49.513718-102.099188 108.974062-101.660366 59.606617 0.511959 107.511322 46.661377 107.291911 103.342516-0.292548 56.681139-48.562937 102.391736-108.096418 102.464873-59.752891 0-108.169555-46.076281-108.169555-102.903694v-1.243329zM173.773403 371.57522H28.523412A27.792042 27.792042 0 0 1 0 344.514547a27.792042 27.792042 0 0 1 28.523412-27.13381h145.249991a27.792042 27.792042 0 0 1 28.523412 27.13381 27.792042 27.792042 0 0 1-28.523412 27.13381z m0 131.939065H28.523412A27.792042 27.792042 0 0 1 0 476.380475a27.792042 27.792042 0 0 1 28.523412-27.13381h145.249991a27.792042 27.792042 0 0 1 28.523412 27.060673 27.792042 27.792042 0 0 1-28.523412 27.206947z m0 131.939065H28.523412A27.792042 27.792042 0 0 1 0 608.31954a27.792042 27.792042 0 0 1 28.523412-27.13381h145.249991a27.792042 27.792042 0 0 1 28.523412 27.060673 27.792042 27.792042 0 0 1-28.523412 27.206947z" p-id="50254"></path><path d="M926.352659 1023.956849H170.701651a91.274919 91.274919 0 0 1-67.72482-27.13381 103.48879 103.48879 0 0 1-29.839877-70.211476V822.830226a29.986151 29.986151 0 0 1 8.630161-20.624621 26.40244 26.40244 0 0 1 19.966388-7.825654c15.212486-0.365685 27.938316 12.287008 28.523412 28.523412v103.781337a42.931392 42.931392 0 0 0 12.433282 29.108508 37.811805 37.811805 0 0 0 28.011454 11.263091h755.651008c10.385447 0.292548 20.478347-3.729985 28.08459-11.263091a42.931392 42.931392 0 0 0 12.287008-29.108508V97.311643a42.931392 42.931392 0 0 0-12.287008-29.108508 37.811805 37.811805 0 0 0-28.08459-11.263091H170.701651a37.811805 37.811805 0 0 0-28.084591 11.263091 42.931392 42.931392 0 0 0-12.287008 29.108508v103.854474c-0.73137 16.163267-13.384063 28.81596-28.596549 28.450275a26.40244 26.40244 0 0 1-19.966388-7.825654A29.986151 29.986151 0 0 1 73.136954 201.166117V97.311643c0.804506-26.694988 11.555639-51.927237 29.839877-70.138339 18.284238-18.284238 42.638844-27.938316 67.72482-27.060673h755.651008c25.085975-0.877643 49.440581 8.776434 67.724819 27.060673s29.035371 43.443351 29.839877 70.211476V926.6847c-0.804506 26.694988-11.555639 51.927237-29.839877 70.138339-18.284238 18.284238-42.638844 27.938316-67.724819 27.060673z" p-id="50255"></path></svg>