<?xml version="1.0" standalone="no"?><!DOCTYPE svg PUBLIC "-//W3C//DTD SVG 1.1//EN" "http://www.w3.org/Graphics/SVG/1.1/DTD/svg11.dtd"><svg t="1661631581837" class="icon" viewBox="0 0 1024 1024" version="1.1" xmlns="http://www.w3.org/2000/svg" p-id="4088" xmlns:xlink="http://www.w3.org/1999/xlink" width="128" height="128"><defs><style type="text/css"></style></defs><path d="M513.5 94C639.697 94 742 196.303 742 322.5S639.697 551 513.5 551c-175.917 0-320.857 132.626-340.286 303.344l-0.334 3.156H512c19.683 0 35.677 15.797 35.995 35.405l0.005 0.595c0 19.683-15.797 35.677-35.405 35.995l-0.595 0.005H135c-19.882 0-36-16.118-36-36 0-179.84 114.53-332.93 274.632-390.309l0.002 0.015C319.71 461.41 285 396.008 285 322.5 285 196.303 387.303 94 513.5 94z m0 72C427.067 166 357 236.067 357 322.5S427.067 479 513.5 479 670 408.933 670 322.5 599.933 166 513.5 166z" p-id="4089"></path><path d="M771.023 930c1.612 0 3.052-0.577 4.319-1.73 1.266-1.155 2.13-2.655 2.59-4.5l5.183-37.732c7.141-2.769 15.318-7.5 24.532-14.192l35.587 14.192c1.843 0.693 3.513 0.808 5.01 0.347 1.497-0.462 2.706-1.5 3.628-3.116l29.022-49.846a8.176 8.176 0 0 0 1.037-5.192c-0.23-1.846-1.037-3.346-2.419-4.5l-30.059-23.539c0.46-3.23 0.691-7.961 0.691-14.192 0-6.23-0.23-10.962-0.69-14.192l30.058-23.539c1.382-1.154 2.189-2.654 2.419-4.5a8.176 8.176 0 0 0-1.037-5.192l-29.022-49.846c-0.922-1.616-2.131-2.654-3.628-3.116-1.497-0.461-3.167-0.346-5.01 0.347l-35.587 14.192c-7.371-6-15.548-10.73-24.532-14.192l-5.182-37.731c-0.46-1.846-1.325-3.346-2.591-4.5-1.267-1.154-2.707-1.731-4.32-1.731h-58.045c-1.612 0-3.052 0.577-4.319 1.73-1.266 1.155-2.015 2.655-2.245 4.5l-5.528 37.732c-7.832 3.23-15.894 7.961-24.186 14.192l-35.933-14.192c-3.685-1.616-6.565-0.693-8.638 2.769l-29.022 49.846a8.176 8.176 0 0 0-1.037 5.192c0.23 1.846 1.037 3.346 2.419 4.5l30.404 23.539c-0.46 3.23-0.69 7.961-0.69 14.192v0.804c0.02 5.835 0.25 10.298 0.69 13.388l-30.404 23.539c-1.382 1.154-2.189 2.654-2.419 4.5a8.176 8.176 0 0 0 1.037 5.192l29.022 49.846c2.073 3.462 4.953 4.385 8.638 2.77l35.933-14.193c6.45 5.539 14.511 10.27 24.186 14.192l5.528 37.731c0.23 1.846 0.979 3.346 2.245 4.5 1.267 1.154 2.707 1.731 4.32 1.731h58.045z m-28.695-94c-8.963 0-17.293-2.298-24.992-6.894-7.698-4.596-13.846-10.744-18.442-18.442-4.596-7.699-6.894-16.03-6.894-24.992s2.298-17.35 6.894-25.163c4.596-7.814 10.744-14.019 18.442-18.615 7.699-4.596 16.03-6.894 24.992-6.894s17.35 2.298 25.163 6.894c7.814 4.596 14.019 10.801 18.615 18.615 4.596 7.813 6.894 16.2 6.894 25.163 0 8.963-2.298 17.293-6.894 24.992-4.596 7.698-10.801 13.846-18.615 18.442-7.813 4.596-16.2 6.894-25.163 6.894z" p-id="4090"></path></svg>